<svg xmlns="http://www.w3.org/2000/svg" x="0px" y="0px"
	 width="400px" height="60px" viewBox="0 0 502.053 84.797" enable-background="new 0 0 502.053 84.797"
	 xml:space="preserve">
<path fill="#3FA9F5" d="M12.635,44.519c0,2.998,0.176,14.039,0.176,15.333c0,1.226-0.117,6.27-0.117,7.429
	c-0.059,0.612-0.059,1.976,0,3.271l0.117,2.384l8.394,0.34l6.984,0.069c0.763-0.069,0.528,0.409,0.528,0.887
	c-0.059,0.476,0.117,1.566,0.117,2.385c0,0.886-0.763,0.68-1.702,0.68c-0.998,0-6.867-0.612-8.921-0.612
	c-1.995,0-13.851,0.612-14.848,0.612c-1.116,0-1.351-0.816-1.292-1.565c0.059-0.749,0-2.59,0-5.111
	c0-2.454,0.235-20.647,0.235-22.829c0-2.181-0.529-15.877-0.529-17.786c0-1.976,1.526-0.75,2.876-0.75
	c1.35,0.205,4.578,0.41,6.925,0.068c2.348-0.341,1.409,1.5,1.409,3.135C12.987,33.616,12.635,41.521,12.635,44.519z"/>
<path fill="#FF1D25" d="M38.924,28.778c1.644,0.204,1.292,0.954,1.115,2.59c-0.175,1.567-0.645,5.451-0.704,11.926
	c-0.176,6.542,0.059,14.173,0.059,15.808c0,1.637,0.293,8.382,0.117,9.541c-0.176,1.09,0.059,5.996,0.059,7.359
	c0.059,1.293-0.88,1.362-1.761,1.293h-5.341c-1.35,0.069-1.35-0.953-1.409-2.11c-0.176-1.091,0.353-3.408,0.353-5.793
	c0-2.521,0.763-14.378,0.763-16.218c0-1.772,0.235-11.244,0.235-12.879c0-0.818,0.059-2.385,0.117-3.68l0.118-2.453v-2.862
	c0-2.794,0.88-2.794,1.643-2.59C35.285,28.778,37.222,28.573,38.924,28.778z"/>
<path fill="#7AC943" d="M72.142,35.456c1.233,1.772,0.235,2.18-0.704,2.862c-0.881,0.682-3.933,3.68-4.813,4.225
	c-0.881,0.613-1.233-0.478-1.703-1.09c-0.528-0.613-1.526-2.521-3.58-2.521c-2.054,0-3.756,2.317-3.756,12.129
	c0,9.745,2.465,12.743,3.932,12.743c1.468,0,2.23-0.545,2.876-2.931c0.646-2.453,2.113-1.499,2.993-1.294
	c0.821,0.34,5.165,1.432,6.808,1.771c0.881,0.205,0.939,1.363,0.764,2.658c-0.058,0.749-0.235,1.499-0.47,2.384
	c-1.056,3.748-4.05,11.381-13.029,11.381c-6.163,0-15.906-5.793-15.906-26.44c0-20.648,9.333-23.646,14.673-23.646
	C68.679,27.687,70.909,33.616,72.142,35.456z"/>
<path fill="#FF7BAC" d="M103.949,38.59c-0.176,1.704-1.409,0.818-2.113,0.681c-0.822-0.205-2.348-0.272-4.52-0.205
	c-2.172,0.069-4.578-0.272-6.632-0.068c-1.996,0.205-5.576,0.068-6.222,0.068s-0.586,0.341-0.586,1.364
	c0,1.09-0.177,4.156-0.177,6.542v4.021c0,0.749,0,1.431,0.059,2.181c0.47,0.067,0.998,0.067,1.585,0.067
	c0.998,0.068,2.465,0.068,4.108,0.068c2.172,0,4.813-0.272,6.222-0.272s2.23,0.204,2.875,0.204c0.646,0,0.764,0.341,0.764,0.817
	c0,0.478-0.118,0.818-0.118,2.113s0.059,1.908,0.059,3.611c0,1.635-0.705,0.886-1.585,0.886c-0.939,0-2.171-0.137-5.869-0.137
	c-3.756,0-6.28,0.545-6.925,0.545c-0.411,0-0.646,0-0.763-0.066c-0.176,0-0.294,0-0.353-0.069v6.814c0.176,0,0.411,0,0.646-0.067
	c0.411,0,0.998-0.069,1.643-0.069c1.351,0,4.285-0.067,6.926-0.067c2.641,0,7.571,0.272,9.567,0.067
	c1.937-0.204,1.409,1.568,1.409,2.793c0,1.364-0.059,2.796-0.059,4.772c0,1.908-0.939,1.498-2.817,1.498
	c-1.937,0-7.571-0.137-10.33-0.137c-2.817,0-8.51,0.273-9.273,0.273c-0.88,0.204-0.821-0.341-0.821-1.09
	c-0.059-0.749-0.059-1.704-0.059-2.521s-0.118-1.499-0.118-2.931v-9.336c0-4.089,0.41-5.315,0.41-10.563
	c0-5.246-0.292-5.724-0.292-9.813c0-4.088,0.117-8.108,0.176-10.018c0-1.907,1.115-1.43,1.995-1.43c0.881,0,1.937,0.204,4.578,0.204
	c2.524,0,6.515-0.613,8.804-0.613c2.406,0,5.399,0.272,6.514,0.272c1.116,0,1.233,0.613,1.233,1.908
	c0,1.294,0.235,2.726,0.235,4.565C104.125,35.933,104.183,36.887,103.949,38.59z"/>
<path fill="#FF931E" d="M142.74,52.492c0,4.634-1.115,25.009-16.903,25.009c-7.924,0-11.798-6.541-13.852-13.152
	c-1.173-3.885-1.878-8.245-2.054-13.22c0-12.265,7.512-23.373,15.201-23.373c3.228,0,6.045-0.137,8.1,1.431
	C141.038,35.251,142.74,48.88,142.74,52.492z M137.869,52.492c0-11.107-4.519-20.715-11.504-20.715
	c-2.172,0-3.814-0.205-5.458,1.908c-1.702,1.976-7.219,7.496-7.219,18.193c0,10.7,3.111,21.806,11.856,21.806
	C134.347,73.684,137.869,63.668,137.869,52.492z"/>
<path fill="#3FA9F5" d="M221.668,76.751h-3.287c-0.294,0-0.47-0.068-0.646-0.613c-0.293-0.887-0.469-1.703-0.645-2.454
	c-0.412-1.293-0.646-2.589-0.705-3.065c-0.176-1.022-0.763-3.544-1.232-4.634c-0.234-0.613-0.646-1.84-0.939-2.931l-0.527-1.977
	c-0.412-1.09-0.529-1.09-0.939-1.09c-0.646,0-1.233,0-1.82,0.069c-0.997,0.067-2.112,0.135-2.524,0.135
	c-0.469,0.069-2.465,0.069-4.343,0.069h-3.579c-0.294-0.069-0.529,0.137-0.646,0.75l-0.117,0.68l-0.235,1.296
	c-0.293,1.091-1.173,6.405-1.35,6.95c-0.059,0.545-0.293,1.704-0.528,2.248c-0.176,0.273-0.352,1.297-0.587,2.182
	c-0.176,0.546-0.292,1.159-0.41,1.771c-0.176,0.545-0.118,0.613-0.646,0.613h-1.174c-0.411,0-0.47-0.272-0.293-0.887
	c0-0.067,0-0.203,0.059-0.339c0.059-0.205,0.059-0.479,0.234-0.954l0.528-2.521c0.177-0.75,0.646-2.045,0.823-3.341
	c0.176-1.09,0.645-3.133,1.115-4.974c0.469-1.907,1.584-5.859,1.878-7.836c0.412-2.113,1.233-4.906,1.526-6.474
	c0.293-1.636,1.115-4.974,1.585-7.02c0.527-1.975,0.939-3.747,1.349-4.77c0.294-1.021,1.526-4.838,1.82-6.678
	c0.469-1.908,0.939-3.271,2.054-3.271c0.529,0,0.939,1.5,1.585,3.407c0.646,1.772,1.82,7.292,2.113,8.382
	c0.176,1.226,2.758,9.199,3.051,10.426c0.47,1.363,2.524,8.041,3.17,9.745c0.468,1.635,1.937,6.609,2.406,8.723
	c0.469,2.181,2.054,6.542,2.348,7.427C222.372,76.546,222.547,76.751,221.668,76.751z M211.514,53.582
	c-0.47-1.227-1.467-5.656-2.114-7.7c-0.586-2.045-1.878-7.292-2.054-8.45c-0.293-1.227-0.88-3.612-1.173-3.612
	c-0.236,0-0.529,1.772-0.939,3.339c-0.294,1.5-1.761,7.633-2.23,9.267c-0.293,1.637-1.468,6.748-1.937,8.178
	c-0.47,1.432,0.939,1.158,1.526,1.158c0.587,0,2.642-0.137,3.404-0.137c0.764-0.204,3.991-0.067,5.165-0.067
	C212.277,55.559,211.925,55.014,211.514,53.582z"/>
<path fill="#FF931E" d="M243.145,29.05c0-1.976,1.76-1.84,2.993-1.84c1.233,0,4.813-0.204,6.457-0.545
	c1.644-0.205,1.644,0.954,1.408,3.066c-0.234,2.112-0.117,24.327-0.117,28.961c0,4.701,0.234,14.99,0.411,16.627
	c0.176,1.567-0.528,1.634-1.644,1.431c-1.115-0.205-3.58,0.137-5.282,0.203c-1.703,0.069-2.23-0.68-2.993-2.52
	c-0.822-1.841-2.348-5.997-4.108-9.473c-0.88-1.703-2.465-5.179-3.874-8.245l-2.583-5.656v2.589c0,1.568-0.058,3.203,0,4.771
	c0,3.067,0.059,14.311,0.353,16.151c0.234,1.839-0.176,1.839-1.057,1.771c-0.939,0-3.287,0.204-4.578,0.409
	c-1.232,0.203-1.409-0.272-1.35-2.453c0-2.113-0.294-11.652-0.469-19.898c0-8.108,0.587-19.625,0.118-22.964
	c-0.412-3.338,0.41-3.748,1.408-3.679c0.939,0.067,1.584,0.067,3.462-0.409c1.878-0.34,1.467,0,3.991,0
	c2.465,0,3.698,3.748,4.813,5.928c0.528,1.159,1.174,2.317,1.702,3.204l0.881,1.567v-3.748
	C243.086,32.321,243.086,30.072,243.145,29.05z"/>
<path fill="#FF1D25" d="M272.427,43.156c1.115,2.18,3.404,8.313,4.168,11.041c0.41,1.293,1.233,3.339,1.878,5.178l1.233,3.203
	c0.878-1.977,1.701-3.817,2.463-5.656l3.817-8.858c1.878-4.226,4.166-9.881,5.399-12.471c1.113-2.589,3.285-7.224,4.107-7.224
	c0.938,0,0.117,2.862-0.059,4.77c-0.234,1.84-0.234,13.425-0.234,16.355c0,3.134-0.235,11.721-0.411,13.833
	c-0.177,2.111-0.058,10.903-0.058,11.857c0.058,1.021-0.119,1.09-0.354,1.021c-0.233-0.067-1.056,0.137-1.584,0.137
	c-0.469-0.067-0.41-0.681-0.41-1.976c0-1.363-0.059-9.54,0.116-11.517c0.177-2.044,0.412-9.608,0.412-11.584
	c-0.058-1.021,0.058-3.611,0.117-6.269l0.118-4.907c-0.293,0.477-0.528,0.954-0.706,1.431c-0.41,0.817-0.819,1.772-1.114,2.522
	c-0.645,1.499-4.343,10.153-5.106,11.787c-0.763,1.637-4.696,11.109-5.164,12.402c-0.472,1.296-1.526,4.158-1.762,4.158
	c-0.233,0-0.469-0.547-0.997-1.568c-0.646-1.09-2.113-5.451-2.701-7.428c-0.585-1.977-4.46-9.745-5.222-11.789
	c-0.413-1.021-1.059-2.93-1.585-4.565c-0.352-0.954-0.706-1.976-0.997-2.997l-0.119,2.997c-0.059,1.636-0.116,3.612-0.116,4.635
	c0,2.111-0.119,11.039-0.119,13.424l-0.059,10.631c0,1.09-0.762,0.816-1.643,0.816s-2.817,0.342-3.403,0.137
	c-0.646-0.204-0.588-0.886-0.53-2.248c0-1.295-0.174-9.882-0.174-12.675c0-2.794,0.587-12.13,0.587-14.583
	c0-2.454,0.117-10.835,0.117-12.812c0-1.84-0.235-5.86,0.234-6.405c0.529-0.614,0.704,0.204,1.819,0
	c1.114-0.137,2.173-0.137,3.111,0.068c0.997,0.409,1.113,2.589,1.466,4.293C269.435,35.115,271.489,40.772,272.427,43.156z"/>
<path fill="#FF7BAC" d="M327.358,33.752c-0.646,0-0.764-0.205-1.878-0.205h-9.391l-7.277-0.068c-0.881,0-1.878,0.136-2.644,0.204
	l-1.349,0.136l-0.119,1.84c-0.058,1.022-0.058,2.181-0.058,3.203c0,1.909,0.235,3.679,0.235,5.247v2.726c0,0.545,0,1.09,0.058,1.703
	c0.53,0.068,1.059,0.068,1.585,0.068h2.349c0.997,0,2.23-0.272,4.05-0.272c1.878,0,3.873,0.272,4.577,0.272
	c0.706,0,1.645-0.203,3.053-0.203c1.409,0,3.991,0.341,4.931,0.135c0.997-0.204,1.114,0.478,1.055,0.818
	c-0.058,0.34-0.058,1.908-0.116,2.453c-0.058,0.614,0,0.749-0.881,0.749c-0.822,0-5.869-0.749-8.1-0.749
	c-2.172,0-4.989,0-7.336,0.205c-1.174,0.204-2.465,0.136-3.463,0.136c-0.587,0-1.115,0-1.645-0.067l-0.175,1.09
	c-0.059,0.612-0.119,1.431-0.119,2.18c0,1.567,0.235,2.249,0.235,3.816l0.059,8.11c0,1.157-0.059,2.383-0.059,3.406
	c-0.058,0.613-0.058,1.157-0.058,1.704c0.762,0.067,1.526,0.067,2.229,0.067c1.233,0.067,2.701,0.067,3.815,0.067
	c2.171,0,4.107,0.138,6.221,0.138s4.108-0.205,5.693-0.205c1.584,0,3.11,0.136,3.757,0.136c0.645,0,0.645,0.341,0.645,1.09
	c0,0.614-0.116,1.363-0.116,2.113c0,0.818-0.704,0.954-2.289,0.749c-1.584-0.204-6.985-0.341-10.623-0.136
	c-3.581,0.205-9.274-0.068-10.975-0.068c-1.763,0-1.292-1.021-1.292-2.111c0.176-1.091-0.06-0.408-0.06-4.498
	c0-4.156-0.292-9.472-0.292-14.037c0-4.567,0.469-11.312,0.469-14.106c0-2.726,0-7.905-0.177-10.426
	c-0.176-2.521,2.816-1.363,4.637-1.363s6.692-0.409,9.861-0.409c3.053,0,8.979,0.204,10.212,0.204c1.232,0,0.999,1.09,0.999,1.84
	C327.593,32.049,327.651,33.752,327.358,33.752z"/>
<path fill="#3FA9F5" d="M360.807,76.954c-0.47,0.41-2.816,0.547-3.932,0.341c-1.114-0.202-1.114-0.68-1.585-1.77
	c-0.469-1.091-5.928-8.996-8.745-13.697c-1.407-2.386-3.989-6.133-6.162-9.336l-4.05-5.86l-0.235,2.726
	c-0.177,1.568-0.177,3.476-0.115,4.906c0.232,2.998,0.293,19.83,0.293,21.533c0,1.704-1.587,1.704-2.349,1.704
	c-0.704,0-0.646-1.159-0.704-1.909c-0.058-0.749-0.235-3.066-0.058-5.246c0.058-2.113,0.526-35.571,0.116-38.433
	c-0.294-2.794,0.177-2.999,0.997-2.999c0.765,0,6.28,0.205,8.687,0.205c2.466,0,11.152,0.75,11.152,6.746
	c0,9.335-13.03,9.471-13.501,9.199c0.529,0.613,16.787,26.44,18.9,28.893C361.747,76.546,361.102,76.615,360.807,76.954z
	 M339.093,42.271c1.643-0.068,3.696-0.206,5.279-0.545c3.112-0.613,5.461-1.5,5.461-4.498c0-2.93-4.873-4.361-7.22-4.361
	c-1.468-0.068-2.937-0.068-4.108-0.068h-1.996l-0.353,9.54C337.155,42.338,338.094,42.338,339.093,42.271z"/>
<path fill="#FF1D25" d="M368.727,38.931c0,3.681-0.471,15.333-0.471,18.808c0,3.543,0.177,15.469,0.353,17.173
	c0.234,1.634-0.06,1.771-0.53,2.042c-0.526,0.341-1.759,0.274-2.64,0.274c-0.939,0-0.587-0.274-0.587-2.862
	c0-2.59,0.235-18.74,0.235-23.238c0-4.497,0.587-17.717,0.409-19.352c-0.058-1.567-0.234-3.203,0.882-3.203
	c0.41,0,1.291,0.069,2.171,0.069c0.881,0,0.529,1.43,0.469,2.588C368.843,32.594,368.785,35.184,368.727,38.931z"/>
<path fill="#BDCCD4" d="M380.993,54.332c0,11.106,5.281,13.287,6.926,13.287c1.643,0,3.463-1.907,4.108-2.657
	c0.645-0.75,0.645-1.158,1.584-0.544l4.989,3.201c1.113,0.613,2.113,0.751,1.466,2.113c-0.646,1.294-4.048,7.836-11.679,7.836
	c-7.688,0-15.025-10.767-15.025-24.94c0-14.174,7.16-23.851,13.733-23.851c6.516,0,9.743,4.77,10.389,5.861
	c0.646,1.021,1.116,1.499,0,2.521c-1.114,1.022-2.992,2.931-3.873,4.293c-0.939,1.363-1.761,2.521-2.759,1.09
	c-1.115-1.43-2.055-2.862-3.521-2.862C384.749,39.681,380.993,43.156,380.993,54.332z"/>
<path fill="#7AC943" d="M434.868,76.819h-4.227c-0.469,0-0.763-1.228-1.175-2.248c-0.469-1.023-1.994-5.929-2.288-7.02
	c-0.294-1.022-1.056-2.794-1.468-3.884c-0.294-1.159-0.585-1.363-1.056-1.363c-0.41,0-1.35,0.137-2.347,0.204
	c-0.938,0.205-4.637,0.068-6.282,0.271c-1.585,0.206-4.519,0-4.986,0c-0.529,0-0.588,0.751-0.765,1.501
	c-0.116,0.681-1.056,4.975-1.232,6.27l-0.646,2.931l-0.469,1.975c-0.235,1.022-0.354,1.295-0.764,1.295h-3.463
	c-0.469,0-0.294-0.477-0.059-1.226c0.235-0.613,0.352-0.751,0.822-2.591c0.469-1.84,2.111-8.177,2.583-11.039
	c0.467-3.066,1.525-6.678,2.171-8.79c0.469-2.249,0.762-3.339,1.526-6.542c0.762-3.203,1.584-6.474,2.23-8.928l1.465-5.451
	c0.471-2.112,0.939-3.611,1.175-4.361c0.235-0.681,0.528-0.817,0.823-0.477c0.409,0.34,0.526,1.09,0.762,1.908
	c0.177,0.955,2.29,6.133,3.11,8.178c0.881,2.113,1.703,4.565,2.523,7.291c0.765,2.658,3.757,9.676,4.989,12.947
	c1.232,3.136,4.227,9.745,5.048,11.586c0.764,1.771,1.936,5.042,2.758,6.132C436.333,76.683,435.629,76.819,434.868,76.819z
	 M421.427,52.015c-0.412-0.818-2.23-5.724-2.817-7.7c-0.764-2.112-1.232-3.884-1.409-4.225c-0.411-1.023-0.469-1.431-0.762-1.431
	c-0.235,0-0.413,1.294-0.704,2.589c-0.294,1.09-1.233,4.702-1.526,5.997c-0.294,1.431-0.999,3.475-1.291,4.498
	c-0.235,1.023-0.412,1.499,0.352,1.499c0.704,0,5.986-0.136,6.983-0.341C421.37,52.696,421.837,53.037,421.427,52.015z"/>
<path fill="#A67C52" d="M456.637,29.05c0-1.976,1.761-1.84,2.994-1.84c1.232,0,4.812-0.204,6.454-0.545
	c1.646-0.205,1.646,0.954,1.41,3.066c-0.235,2.112-0.116,24.327-0.116,28.961c0,4.701,0.233,14.99,0.409,16.627
	c0.176,1.567-0.528,1.634-1.643,1.431c-1.115-0.205-3.581,0.137-5.282,0.203c-1.703,0.069-2.23-0.68-2.994-2.52
	c-0.82-1.841-2.347-5.997-4.107-9.473c-0.881-1.703-2.466-5.179-3.874-8.245l-2.584-5.656v2.589c0,1.568-0.058,3.203,0,4.771
	c0,3.067,0.061,14.311,0.354,16.151c0.233,1.839-0.177,1.839-1.058,1.771c-0.939,0-3.286,0.204-4.576,0.409
	c-1.233,0.203-1.41-0.272-1.352-2.453c0-2.113-0.294-11.652-0.469-19.898c0-8.108,0.587-19.625,0.116-22.964
	c-0.409-3.338,0.41-3.748,1.409-3.679c0.939,0.067,1.585,0.067,3.463-0.409c1.879-0.34,1.466,0,3.99,0
	c2.466,0,3.698,3.748,4.814,5.928c0.526,1.159,1.174,2.317,1.7,3.204l0.881,1.567v-3.748
	C456.579,32.321,456.579,30.072,456.637,29.05z"/>
<path fill="#3FA9F5" d="M500.886,53.378c0,9.881-3.757,24.873-12.971,24.873c-12.913,0-13.911-18.468-13.911-25.827
	c0-19.626,8.335-24.328,13.499-24.328C500.241,28.097,500.886,43.429,500.886,53.378z M490.555,53.99
	c0-3.475-0.997-6.813-2.697-6.813c-2.172,0-2.937,4.498-2.937,7.428c0,2.725,0.177,6.337,2.523,6.337
	C489.736,60.941,490.555,57.397,490.555,53.99z"/>
<g>
	<path fill="#3C3C3B" d="M183.043,4.047c-0.167-0.204-0.39-0.008-0.4,0.227c-0.036,0.864-0.822,1.306-1.457,1.183
		c-0.746-0.146-1.354-0.87-1.858-1.524c-0.838-1.087-1.646-2.246-2.914-2.419c-1.084-0.147-2.152,0.396-3.009,1.129
		c-0.771,0.659-1.519,1.559-1.582,2.759c-0.122-0.071-0.257-0.129-0.412-0.165c-1.144-0.269-2.101,1.867-1.933,3.167
		c-1.071-0.094-2.159,0.009-3.204,0.298c-1.708,0.472-3.257,1.477-4.489,2.876c-0.804-0.759-2.689-1.716-3.335-0.486
		c-0.062,0.118-0.106,0.238-0.137,0.359c-1.149-2.09-4.007-1.523-5.336-0.096c-0.943,1.016-1.192,2.46-1.331,3.958
		c-0.152,1.659-0.505,4.605-2.415,4.177c-0.238-0.053-0.43,0.323-0.216,0.538c2.402,2.429,5.836,2.101,7.731-0.766
		c0.008-0.014,0.016-0.027,0.022-0.041c0.671,0.371,1.58,0.435,2.165,0.265c0.003,0.564,0.045,1.126,0.126,1.679
		c-0.734-0.077-1.391,0.892-1.104,1.791c0.145,0.454,0.512,0.769,0.889,0.856c0.262,0.062,0.625,0.027,0.843-0.191
		c1.137,3.059,3.461,5.437,6.292,5.79c0.515,0.208,1.064,0.288,1.623,0.282c-0.108,0.438-0.212,0.873-0.306,1.314
		c0.154-0.023,0.305-0.054,0.458-0.071c0.067-0.417,0.124-0.833,0.181-1.253c0-0.001,0-0.002,0-0.002
		c1.123-0.078,2.265-0.472,3.224-0.855c1.337-0.535,2.623-1.33,3.709-2.42c-0.009,0.054,0,0.112,0.032,0.167
		c0.24,0.397,0.544,0.728,0.884,0.984c0.115-0.132,0.241-0.251,0.366-0.37c-0.366-0.215-0.683-0.523-0.965-0.915
		c-0.036-0.05-0.079-0.069-0.121-0.069c0.283-0.299,0.551-0.619,0.8-0.96c1.746-2.388,2.279-5.629,1.684-8.699
		c0.649,0.075,1.25-0.743,1.061-1.557c-0.208-0.892-1.164-1.172-1.708-0.667c-0.124-0.314-0.259-0.625-0.408-0.93
		c-0.193-0.391-0.403-0.758-0.629-1.102c0.035,0.021,0.073,0.033,0.111,0.03c0.368-0.032,0.673-0.46,0.879-0.907
		c0.795,0.418,1.822,0.218,2.589-0.095c0.905-0.37,1.697-1.042,2.386-1.83C182.936,8.219,184.541,5.885,183.043,4.047z
		 M159.559,22.999c-0.173,0.084-0.301,0.212-0.523,0.183c-0.231-0.034-0.481-0.198-0.582-0.473c-0.209-0.58,0.306-1.174,0.759-1.095
		C159.301,22.084,159.417,22.549,159.559,22.999z M177.195,14.857c0.291-0.405,0.973-0.263,1.099,0.312
		c0.118,0.535-0.333,1.035-0.746,0.981c-0.098-0.434-0.217-0.862-0.359-1.285C177.191,14.863,177.192,14.862,177.195,14.857z
		 M171.514,5.794c1.181,0.386,0.767,2.2,0.487,3.179c-0.684-0.279-1.396-0.462-2.12-0.555
		C169.955,7.466,170.623,5.501,171.514,5.794z M173.278,8.315c0.334,0.229,0.346,0.87,0.068,1.135
		c-0.049,0.047-0.073,0.107-0.081,0.169c-0.271-0.169-0.546-0.323-0.83-0.457c0.06-0.2,0.115-0.422,0.164-0.653
		C172.763,8.275,173.045,8.154,173.278,8.315z M165.198,9.777c1.542-0.703,3.304-0.964,5-0.689
		c-0.002,0.014-0.007,0.026-0.008,0.042c-0.363,2.958-2.008,5.174-3.75,7.05c-2.095,2.252-4.339,4.281-6.419,6.554
		c-0.253-0.83-0.413-1.705-0.46-2.606C159.317,15.446,161.749,11.349,165.198,9.777z M158.975,15.014
		c0.114-0.508,0.619-0.532,0.934-0.293c0,0.002,0.001,0.002,0.003,0.003c-0.166,0.408-0.311,0.83-0.433,1.266
		C159.146,15.878,158.877,15.443,158.975,15.014z M159.045,11.288c0.61-0.748,1.79,0.11,2.517,0.611
		c-0.545,0.675-1.018,1.436-1.405,2.266C159.508,13.615,158.338,12.155,159.045,11.288z M156.038,17.246
		c-0.173,0.684,0.008,1.195,0.363,1.555c-1.585,2.313-4.279,2.77-6.387,1.162c0.698-0.177,1.284-0.783,1.631-1.586
		c0.57-1.315,0.496-2.883,0.738-4.318c0.295-1.763,1.299-2.958,2.714-3.365c1.165-0.335,2.64,0.047,3.292,1.441
		c0.12,0.724,0.605,1.435,1.11,1.927c-0.393,0.012-0.78,0.302-0.899,0.769c-0.064,0.249-0.042,0.51,0.037,0.744
		C157.566,15.194,156.398,15.825,156.038,17.246z M156.549,17.172c0.486-1.286,1.745-1.537,2.711-0.832
		c0.044,0.032,0.087,0.029,0.125,0.006c-0.184,0.739-0.307,1.515-0.358,2.321c-0.004,0.064-0.006,0.127-0.009,0.192
		C158.234,18.986,155.893,18.912,156.549,17.172z M176.167,23.736c-1.078,2-2.76,3.382-4.566,4.234
		c-1.556,0.735-3.543,1.412-5.293,1.018c-0.027-0.092-0.085-0.165-0.179-0.178c-2.688-0.357-4.984-2.631-6.037-5.614
		c2.34-2.134,4.646-4.42,6.811-6.817c1.525-1.688,2.946-3.683,3.463-6.183c1.117,3.239,3.505,6.02,6.326,6.702
		c0.285,0.069,0.364-0.433,0.086-0.534c-2.895-1.052-5.317-3.552-6.257-7.182c1.926,0.41,3.736,1.536,4.995,3.532
		C177.532,15.903,177.947,20.435,176.167,23.736z M176.825,10.276c-0.012,0.086-0.521,1.604-0.729,1.461
		c-0.159-0.111-0.335,0.088-0.282,0.292c0.006,0.025,0.012,0.049,0.018,0.074c-0.608-0.887-1.323-1.609-2.108-2.176
		c0.631-0.694,1.465-1.622,2.407-1.2C176.668,8.967,176.912,9.607,176.825,10.276z M181.125,9.553
		c-0.574,0.557-1.221,1.019-1.931,1.266c-0.708,0.247-1.335,0.151-2.035,0.088c0.006-0.02,0.012-0.038,0.018-0.056
		c0.202-0.691,0.155-1.545-0.273-2.129c-0.908-1.233-2.109-0.5-2.951,0.379c0.044-0.478-0.121-0.999-0.493-1.23
		c-0.252-0.157-0.527-0.136-0.76-0.003c0.093-0.841,0.017-1.713-0.458-2.229c0.208-1.615,1.617-2.789,2.781-3.28
		c0.616-0.262,1.302-0.369,1.949-0.125c0.726,0.274,1.273,0.968,1.778,1.642c0.746,0.993,1.636,2.249,2.817,2.247
		c0.678-0.001,1.295-0.438,1.557-1.147C183.884,6.621,182.037,8.669,181.125,9.553z"/>
	<path fill="#3C3C3B" d="M174.513,20.545c-0.275-0.046-0.491,0.029-0.682,0.265c-0.097,0.12,0.027,0.374,0.159,0.299
		c0.089-0.051,0.205-0.074,0.312-0.064c-0.054,0.035-0.098,0.097-0.116,0.191c-0.493,2.456-2.394,3.588-4.203,4.278
		c-1.838,0.7-3.728,0.857-5.25-0.93c0.074-0.124,0.147-0.247,0.217-0.374c0.17-0.304-0.189-0.714-0.365-0.405
		c-0.242,0.42-0.461,0.858-0.687,1.293c-0.122,0.236,0.201,0.514,0.34,0.291c0.091-0.146,0.183-0.293,0.272-0.441
		c1.231,2.191,3.807,1.832,5.533,1.192c1.992-0.737,4.139-2.033,4.635-4.761c0.007-0.041,0.007-0.077,0.002-0.112
		c0.042,0.036,0.082,0.07,0.128,0.097c0.127,0.071,0.301-0.029,0.281-0.22C175.056,20.789,174.784,20.589,174.513,20.545z"/>
	<path fill="#3C3C3B" d="M167.601,18.591c-0.166-0.312-0.5-0.021-0.372,0.293c0.24,0.592,0.121,1.425-0.416,1.666
		c-0.497,0.22-1.043-0.146-1.307-0.684c-0.083-0.167-0.29-0.043-0.243,0.138c0.244,0.917,1.137,1.427,1.833,1.013
		C167.797,20.6,168.036,19.416,167.601,18.591z"/>
	<path fill="#3C3C3B" d="M172.464,16.689c-0.127-0.341-0.572-0.195-0.453,0.168c0.19,0.577,0.084,1.294-0.389,1.583
		c-0.531,0.323-1.167-0.127-1.406-0.767c-0.097-0.257-0.392-0.155-0.337,0.125c0.194,0.991,1.119,1.6,1.873,1.227
		C172.463,18.673,172.792,17.563,172.464,16.689z"/>
</g>
<path fill="#FF1D25" d="M192.913,43.429c0,10.153-7.043,12.197-9.567,12.197c-1.233,0-3.463,0.204-5.341,0.41
	c-1.115,0.136-2.289,0.271-3.522,0.341c-0.058,3.133-0.117,5.995-0.117,8.517c0,4.362,0,8.859,0.176,9.608
	c0.293,1.432-1.174,2.249-1.938,1.84c-0.704-0.137-3.345,0-4.753,0.204c-1.409,0.205-1.526-0.954-1.526-2.248
	c0-1.295,0.118-5.589,0.118-8.449c0-2.862,0.646-30.598,0.411-33.527c-0.293-2.93,0.059-3.612,0.586-3.543
	c0.529,0.068,2.231,0.136,3.698,0.136c1.057,0,7.513-0.272,12.384,0.068C188.335,29.323,192.913,33.275,192.913,43.429z
	 M187.63,43.837c0-5.792-2.17-8.245-5.751-9.063c-3.58-0.818-5.987-0.886-6.926-0.818c0,0.954,0,1.908-0.058,2.862
	c-0.059,1.636-0.118,3.612-0.294,5.452c-0.176,1.84-0.176,3.816-0.118,5.384l0.118,2.657l2.759,0.205
	c1.584,0.204,3.227,0.204,4.343,0.204C183.757,50.72,187.63,49.697,187.63,43.837z"/>
<path fill="none" stroke="#333333" stroke-width="0.5" stroke-miterlimit="10" d="M178.361,27.929
	c0.171,0.292,0.401,0.518,0.628,0.736c0.828,0.08,1.601,0.112,2.42,0.904c0.932,0.901,1.457,2.388,1.342,3.755
	c-0.504-0.663-1.264-1.008-1.893-0.891l-0.601,0.288c0.002,0.003,0.003,0.008,0.005,0.011c-0.065,0.062-0.128,0.131-0.182,0.212
	c-0.772,0.281-0.704,2.686-0.409,3.571c0.445,1.326,1.486,1.827,2.357,1.623c0.001,0.014,0,0.026,0.003,0.04
	c0.004,0.035,0.007,0.069,0.011,0.104c0.206-0.085,0.412-0.167,0.584-0.327c-0.011-0.024-0.021-0.049-0.034-0.07
	c0.076-0.052,0.149-0.112,0.217-0.18c0.835-0.819,0.924-2.562,0.241-3.889C184.153,30.545,180.508,26.906,178.361,27.929z"/>
<path fill="none" stroke="#333333" stroke-width="0.5" stroke-miterlimit="10" d="M168.062,45.294
	c0.414,1.469,1.605,2.533,2.686,2.34c0.088-0.015,0.175-0.038,0.259-0.071c0.004,0.025,0.014,0.049,0.022,0.074
	c0.218-0.045,0.406-0.172,0.597-0.296c-0.02-0.029-0.04-0.052-0.06-0.078c-0.008-0.011-0.017-0.02-0.025-0.03
	c0.704-0.628,1.062-1.87,0.493-3.129c-0.38-0.84-1.9-2.479-2.589-1.988c-0.088-0.006-0.174,0.005-0.256,0.021
	c-0.001-0.003-0.003-0.007-0.004-0.012l-0.582,0.337c-0.488,0.474-0.763,1.366-0.664,2.241c-0.964-0.796-1.585-2.232-1.56-3.64
	c0.023-1.237,0.509-1.936,1.001-2.712c0.007-0.343,0.011-0.693-0.066-1.035C165.242,38.529,165.213,44.11,168.062,45.294z"/>
</svg>
